<svg xmlns="http://www.w3.org/2000/svg" viewBox="0 0 90 90"><defs><style>.cls-1{fill:#073349;}.cls-2{fill:#ffd400;}.cls-3{fill:#ffb600;}.cls-4{fill:#f29b00;}.cls-5{fill:#ffa300;}.cls-6{fill:#eb9500;opacity:0.4;}.cls-7{fill:#ff7f00;stroke:#ff7f00;stroke-miterlimit:10;stroke-width:0.94px;}</style></defs><title>saturn</title><g id="saturn"><g id="saturn-2" data-name="saturn"><circle id="back" class="cls-1" cx="45" cy="45" r="42.5"/><g id="stars"><path class="cls-2" d="M59.18,69.88a1,1,0,1,1-1,1,1,1,0,0,1,1-1"/><circle class="cls-2" cx="24.59" cy="70.87" r="1"/><circle class="cls-2" cx="71.87" cy="64.9" r="1"/><circle class="cls-2" cx="18.13" cy="58.93" r="1"/><circle class="cls-2" cx="21.12" cy="19.13" r="1"/><circle class="cls-2" cx="74.24" cy="32.19" r="1"/></g><g id="staurn"><circle class="cls-3" cx="45.46" cy="45" r="21.72" transform="translate(-17.99 36.87) rotate(-37.41)"/><path class="cls-4" d="M58.8,62.33A21.36,21.36,0,0,1,29.4,59,21.37,21.37,0,0,0,60,29.59c-.18-.23-.36-.46-.56-.69a21.36,21.36,0,0,1-.65,33.42Z"/><path class="cls-5" d="M65.18,35.94a21.64,21.64,0,0,0-2.06-3.55,200.78,200.78,0,0,1-36.18,1.3,21.59,21.59,0,0,0-1.8,3.68q9.81.61,19.61.28A204.71,204.71,0,0,0,65.18,35.94Z"/><path class="cls-5" d="M67.15,45.61a21.76,21.76,0,0,0-.23-3.78,200.8,200.8,0,0,1-43.11,1.55,21.8,21.8,0,0,0,0,3.79,204.72,204.72,0,0,0,21.24.39A204.71,204.71,0,0,0,67.15,45.61Z"/><path class="cls-5" d="M64.18,56A21.61,21.61,0,0,0,66,51.92a200.82,200.82,0,0,1-40.6,1.47,21.63,21.63,0,0,0,2.14,3.9q8.93.48,17.85.19Q54.83,57.16,64.18,56Z"/><path class="cls-6" d="M32.26,27.75A21.72,21.72,0,1,1,58.65,62.25"/><path class="cls-7" d="M25.5,53.92c-4.18.1-5.58-.7-5.73-1.21s.82-2.49,5.93-5.44a92,92,0,0,1,17.75-7.43c15.4-4.83,26.12-5,26.79-3,.15.47-.46,1.83-3.57,4,.13.65.23,1.29.3,1.94a.92.92,0,0,0,.42-.14c3.69-2.46,5.22-4.53,4.65-6.33-1.56-5-18.29-1.69-29.15,1.72a93.88,93.88,0,0,0-18.13,7.59c-5.16,3-7.44,5.55-6.78,7.64a2.48,2.48,0,0,0,.12.31c.77,1.64,3.32,2.37,7.79,2.21a.92.92,0,0,0,.47-.16Q25.89,54.8,25.5,53.92Z"/></g></g></g></svg>